<svg width="232" height="248" viewBox="0 0 232 248" fill="none" xmlns="http://www.w3.org/2000/svg">
<path d="M140.552 183.715L204.226 196.409C204.226 196.409 214.876 199.207 215.837 193.222C216.512 189.022 211.207 191.103 208.834 190.113C200.848 186.786 184.642 180.55 184.642 180.55L171.446 171.166L157.306 163.662L140.552 183.715Z" fill="#010101"/>
<path d="M191.105 163.325L215.448 187.511C215.799 187.856 217.201 187.917 217.676 187.973C219.005 188.118 221.094 190.832 219.312 193.959C218.335 195.672 215.096 195.533 213.097 194.943C212.276 194.698 211.65 194.303 210.913 193.853L204 189.67C203.932 189.631 203.86 189.592 203.787 189.553L187.71 179.885C183.706 177.749 184.912 179.368 185.699 177.666L189.491 166.635C190.172 164.677 189.642 161.934 191.105 163.325Z" fill="#010101"/>
<path d="M76.9943 164.046C71.8398 165.003 66.529 164.519 61.1623 162.511C60.5369 162.261 60.4698 162.238 60.9557 162.444C60.6206 162.3 60.2911 162.144 59.9616 161.983C59.4758 161.738 58.9955 161.499 58.5208 161.237C57.9009 160.892 57.2923 160.531 56.7003 160.141C56.5328 160.03 54.8853 158.801 55.7397 159.49C54.8239 158.756 54.0142 157.933 53.1877 157.098C52.9699 156.859 52.7577 156.615 52.5454 156.364C52.914 156.865 52.914 156.859 52.5399 156.348C52.2215 155.897 51.92 155.435 51.6408 154.962C51.3671 154.495 51.1158 154.011 50.8813 153.522C51.4509 154.729 50.7026 152.965 50.6244 152.704C50.4681 152.192 50.3619 151.669 50.2446 151.146C50.172 150.735 50.1832 150.846 50.2726 151.491C50.2391 151.185 50.2167 150.879 50.2 150.568C50.2 149.939 50.1944 149.322 50.2335 148.693C50.3005 148.042 50.2949 148.059 50.2167 148.743C50.2725 148.421 50.3396 148.098 50.4178 147.781C50.563 147.297 50.6858 146.808 50.8422 146.329C51.0767 145.728 51.0767 145.678 50.8533 146.19C50.9985 145.856 51.1549 145.528 51.3225 145.206C54.5336 139.114 60.9445 134.981 67.3443 131.688C73.7329 128.401 68.0871 118.794 61.7096 122.082C50.8422 127.672 37.7354 137.69 39.0981 151.486C40.2094 162.711 49.5298 170.499 59.7885 173.786C66.3223 175.878 73.2582 176.011 79.9652 174.765C82.9306 174.215 84.6171 170.644 83.8631 167.923C83.0031 164.831 79.9652 163.496 76.9943 164.046Z" fill="#010101"/>
<path d="M193.02 166.676C192.931 164.14 187.514 148.737 186.229 142.885L146.166 138.802C143.865 139.987 137.164 141.461 132.149 141.995C114.642 143.875 101.407 136.293 90.4386 138.596C70.234 142.829 73.5568 172.222 82.5869 177.679C88.1937 181.067 132.417 185.461 140.766 183.314C149.115 181.167 158.541 176.339 158.541 168.557C158.541 160.774 182.784 180.627 184.671 180.627C186.553 180.627 193.26 174.18 193.02 166.676Z" fill="#F07F2E" stroke="#010101" stroke-miterlimit="10"/>
<path d="M90.4313 138.58C90.4313 138.58 79.0334 158.455 103.22 157.015C104.566 156.937 105.722 156.002 106.046 154.701C106.632 152.37 108.413 149.216 113.802 151.452C121.85 154.79 122.855 159.134 128.222 156.464C133.588 153.794 134.359 148.237 133.253 145.111C132.147 141.984 132.147 141.984 132.147 141.984L124.915 142.524C124.005 142.507 119.264 142.235 118.37 142.084L100.383 138.53C100.372 138.524 92.9053 137.779 90.4313 138.58Z" fill="#010101" stroke="#010101" stroke-miterlimit="10"/>
<path d="M125.515 80.1679C125.515 80.1679 123.982 51.636 130.18 50.2094C136.378 48.7828 147.069 59.0201 147.069 59.0201L125.515 80.1679Z" fill="#010101"/>
<path d="M184.06 59.7122C184.06 59.7122 195.502 48.3146 203.611 50.2134C211.715 52.1122 205.522 74.6413 205.522 74.6413L184.06 59.7122Z" fill="#010101"/>
<path d="M206.444 132.345C197.855 139.133 192.112 141.353 182.349 143.995C175.833 145.759 159.422 145.671 144.13 139.514C133.417 134.826 129.219 129.728 127.196 126.95C125.436 124.534 121.856 119.173 121.651 113.307C121.353 104.769 121.603 96.4397 125.521 80.1796C129.44 63.9144 147.075 59.0318 147.075 59.0318C166.344 54.4808 182.345 58.0573 187.897 59.0318C193.449 60.0063 209.224 69.9975 210.58 90.02C210.787 93.0139 214.142 103.664 214.463 112.609C214.562 115.353 214.64 119.005 213.275 122.752C211.7 127.073 208.184 130.888 206.444 132.345Z" fill="#F07F2E" stroke="#010101" stroke-miterlimit="10"/>
<path d="M153.331 91.9426C153.467 91.6864 153.623 91.4403 153.79 91.1992C153.87 91.0836 153.951 90.9681 154.032 90.8525C154.077 90.7923 154.127 90.727 154.173 90.6667C154.284 90.511 153.926 90.9631 154.153 90.6918C154.385 90.4105 154.622 90.1393 154.884 89.8831C155.02 89.7475 155.161 89.6168 155.307 89.4913C155.358 89.4461 155.615 89.2401 155.413 89.3959C155.212 89.5516 155.504 89.3355 155.57 89.2903C155.731 89.1798 155.902 89.0743 156.079 88.9839C156.165 88.9387 156.255 88.8985 156.346 88.8533C156.523 88.7629 156.029 88.9538 156.377 88.8483C156.568 88.788 156.76 88.7428 156.951 88.6976C157.209 88.6323 156.624 88.7077 156.891 88.7077C157.007 88.7077 157.123 88.6926 157.244 88.6976C157.35 88.6976 157.456 88.7177 157.557 88.7177C157.748 88.7177 157.249 88.6323 157.43 88.7026C157.471 88.7177 157.526 88.7177 157.572 88.7328C157.683 88.7629 157.794 88.788 157.899 88.8232C157.945 88.8383 157.995 88.8583 158.041 88.8734C158.338 88.9588 157.869 88.7629 158.015 88.8634C158.263 89.0291 158.55 89.1547 158.802 89.3205C158.853 89.3557 158.903 89.3908 158.953 89.431C158.711 89.2451 158.953 89.436 158.999 89.4812C159.135 89.6068 159.276 89.7273 159.407 89.8579C160.083 90.5311 160.497 91.1188 161.011 91.9476C161.44 92.6358 162.362 92.907 163.079 92.4901C163.769 92.0882 164.052 91.1238 163.623 90.4306C162.004 87.8336 159.549 85.2065 156.19 85.7942C154.173 86.1458 152.594 87.7332 151.439 89.3155C151.177 89.6721 150.925 90.0438 150.718 90.4306C150.335 91.1489 150.537 92.0682 151.263 92.4901C151.944 92.8769 152.947 92.6609 153.331 91.9426Z" fill="#010101"/>
<path d="M197.52 89.7878C197.651 89.5417 197.803 89.3056 197.959 89.0746C198.035 88.964 198.11 88.8535 198.191 88.743C198.236 88.6827 198.282 88.6225 198.322 88.5622C198.433 88.4115 198.07 88.8686 198.297 88.6023C198.519 88.3361 198.746 88.0749 198.998 87.8287C199.129 87.6981 199.265 87.5726 199.406 87.457C199.457 87.4118 199.709 87.2109 199.502 87.3717C199.295 87.5324 199.578 87.3164 199.643 87.2762C199.8 87.1707 199.961 87.0703 200.128 86.9799C200.213 86.9346 200.299 86.8945 200.38 86.8543C200.556 86.7639 200.047 86.9598 200.395 86.8543C200.576 86.799 200.763 86.7538 200.95 86.7086C201.202 86.6483 200.612 86.7237 200.874 86.7186C200.985 86.7186 201.096 86.7036 201.212 86.7086C201.313 86.7086 201.413 86.7287 201.514 86.7287C201.706 86.7287 201.197 86.6433 201.373 86.7136C201.413 86.7287 201.464 86.7287 201.504 86.7388C201.61 86.7689 201.716 86.794 201.817 86.8241C201.862 86.8392 201.908 86.8593 201.953 86.8694C202.246 86.9548 201.771 86.7538 201.913 86.8492C202.15 87.01 202.422 87.1255 202.664 87.2913C202.715 87.3265 202.76 87.3616 202.805 87.3968C202.548 87.2009 202.785 87.3867 202.836 87.432C202.967 87.5525 203.103 87.668 203.229 87.7936C203.89 88.4517 204.243 88.964 204.757 89.7828C205.186 90.471 206.108 90.7423 206.824 90.3253C207.515 89.9235 207.798 88.959 207.369 88.2658C205.801 85.7542 203.426 83.2275 200.178 83.7952C198.226 84.1367 196.708 85.6688 195.589 87.1959C195.337 87.5375 195.1 87.894 194.898 88.2658C194.515 88.9841 194.716 89.9034 195.443 90.3253C196.134 90.7272 197.137 90.5112 197.52 89.7878Z" fill="#010101"/>
<path d="M163.088 104.997L147.44 104.495" stroke="#010101" stroke-miterlimit="10"/>
<path d="M163.346 110.37L149.76 112.379" stroke="#010101" stroke-miterlimit="10"/>
<path d="M204.31 102.678L219.958 102.176" stroke="#010101" stroke-miterlimit="10"/>
<path d="M204.054 108.033L217.64 110.037" stroke="#010101" stroke-miterlimit="10"/>
<path d="M181.923 108.726C181.923 108.726 189.493 119.164 195.897 108.535" stroke="#010101" stroke-miterlimit="10"/>
<path d="M188.973 100.926V112.715" stroke="#010101" stroke-miterlimit="10"/>
<path d="M188.836 101.457C192.005 101.457 194.574 99.6537 194.574 97.4288C194.574 95.2038 192.005 93.4001 188.836 93.4001C185.666 93.4001 183.097 95.2038 183.097 97.4288C183.097 99.6537 185.666 101.457 188.836 101.457Z" fill="#010101"/>
<path d="M138.567 95.7566C143.656 90.5074 127.392 79.4915 126.192 79.0193C126.142 78.9992 121.568 99.6151 121.802 112.027C121.856 114.925 122.407 117.943 122.407 117.943C123.36 118.787 123.983 121.506 131.114 118.035C135.103 116.091 135.89 112.132 132.259 111.369C125.274 109.907 132.279 108.35 131.134 105.587C128.244 98.6149 133.217 101.277 138.567 95.7566Z" fill="black" stroke="#010101" stroke-miterlimit="10"/>
<path d="M207.665 116.232C208.255 110.059 214.047 111.801 214.047 111.801C215.975 123.07 209.233 130.725 204.373 133.404C203.193 133.404 202.062 126.515 204.715 125.636C207.367 124.757 207.075 122.406 207.665 116.232Z" fill="black" stroke="#010101" stroke-miterlimit="10"/>
</svg>
