<svg xmlns="http://www.w3.org/2000/svg" aria-hidden="true" style="position:absolute;width:0;height:0;overflow:hidden">
    <defs>
        <symbol id="icon-fi-ss-caret-down" viewBox="0 0 32 32">
            <path fill="#fff" d="M7.744 12h16.513l-7.423 8.391c-.221.25-.521.39-.834.39s-.613-.14-.834-.39L7.744 12z"
                style="fill:var(--color1, #fff)" />
        </symbol>
        <symbol id="icon-arrow-narrow-right" viewBox="0 0 32 32">
            <path fill="none" stroke="#eac645" stroke-linecap="round" stroke-linejoin="round" stroke-width="3.2"
                d="M5.333 16h21.333m.001 0-8-8m8 8-8 8" style="stroke:var(--color2, #eac645)" />
        </symbol>
        <symbol id="icon-arrow-back" viewBox="0 0 32 32">
            <path fill="#fff"
                d="M4.5 19.6 15.7 8.367c.133-.133.278-.228.433-.283s.322-.084.5-.084.345.028.5.084.3.149.433.283L28.799 19.6c.311.311.467.7.467 1.167s-.167.867-.5 1.2c-.333.333-.722.5-1.167.5s-.833-.167-1.167-.5l-9.8-9.8-9.8 9.8c-.311.311-.694.467-1.149.467s-.851-.167-1.184-.5-.5-.722-.5-1.167c0-.444.167-.833.5-1.167z"
                style="fill:var(--color1, #fff)" />
        </symbol>
        <symbol id="icon-user-fill" viewBox="0 0 32 32">
            <path fill="#4f2ee8"
                d="M5.333 29.333a10.662 10.662 0 0 1 18.208-7.543c2 2 3.124 4.714 3.124 7.543H5.332zm10.667-12c-4.42 0-8-3.58-8-8s3.58-8 8-8 8 3.58 8 8-3.58 8-8 8z"
                style="fill:var(--color3, #4f2ee8)" />
        </symbol>
        <symbol id="icon-trash" viewBox="0 0 32 32">
            <path fill="none" stroke="#fff" stroke-linecap="round" stroke-linejoin="round" stroke-width="2.909"
                d="M12 4h8M4 8h24m-2.667 0-.935 14.026c-.14 2.104-.21 3.157-.665 3.954a4 4 0 0 1-1.731 1.619c-.826.4-1.881.4-3.99.4h-4.025c-2.109 0-3.163 0-3.99-.4a4.005 4.005 0 0 1-1.731-1.619c-.455-.798-.525-1.85-.665-3.954L6.666 8m6.667 6v6.667M18.667 14v6.667"
                style="stroke:var(--color1, #fff)" />
        </symbol>
        <symbol id="icon-align-left" viewBox="0 0 32 32">
            <path stroke-linecap="round" stroke-linejoin="round" stroke-width="2.286"
                d="M22.667 13.333H4M28 8H4m24 10.667H4M22.667 24H4" />
        </symbol>
        <symbol id="icon-x-close" viewBox="0 0 32 32">
            <path stroke-linecap="round" stroke-linejoin="round" stroke-width="3.429" d="M24 8 8 24M8 8l16 16" />
        </symbol>
        <symbol id="icon-lock" viewBox="0 0 32 32">
            <path stroke-linecap="round" stroke-linejoin="round" stroke-width="2.286"
                d="M22.667 14.667v-4a6.667 6.667 0 0 0-13.334 0v4M10.4 28h11.2c2.24 0 3.36 0 4.216-.436a3.991 3.991 0 0 0 1.748-1.748C28 24.96 28 23.84 28 21.6v-.533c0-2.24 0-3.36-.436-4.216a3.991 3.991 0 0 0-1.748-1.748c-.856-.436-1.976-.436-4.216-.436H10.4c-2.24 0-3.36 0-4.216.436a3.996 3.996 0 0 0-1.748 1.748C4 17.707 4 18.827 4 21.067v.533c0 2.24 0 3.36.436 4.216a3.991 3.991 0 0 0 1.748 1.748C7.04 28 8.16 28 10.4 28z" />
        </symbol>
        <symbol id="icon-mail" viewBox="0 0 32 32">
            <path stroke-linecap="round" stroke-linejoin="round" stroke-width="2.286"
                d="m28.666 24-8.857-8m-7.619 0-8.857 8M2.667 9.333l10.887 7.621c.882.617 1.322.926 1.802 1.045.423.106.866.106 1.29 0 .479-.12.92-.428 1.802-1.045l10.887-7.621M9.067 26.667h13.867c2.24 0 3.36 0 4.216-.436a3.996 3.996 0 0 0 1.748-1.748c.436-.856.436-1.976.436-4.216v-8.533c0-2.24 0-3.36-.436-4.216A3.991 3.991 0 0 0 27.15 5.77c-.856-.436-1.976-.436-4.216-.436H9.067c-2.24 0-3.36 0-4.216.436a3.991 3.991 0 0 0-1.748 1.748c-.436.856-.436 1.976-.436 4.216v8.533c0 2.24 0 3.36.436 4.216a3.996 3.996 0 0 0 1.748 1.748c.856.436 1.976.436 4.216.436z" />
        </symbol>
        <symbol id="trash" viewBox="0 0 32 32">
            <path fill="none" stroke="#fff" style="stroke: var(--color1, #fff)" stroke-linejoin="round" stroke-linecap="round" stroke-miterlimit="4" stroke-width="2.6667" d="M12 4h8M4 8h24M25.333 8l-0.935 14.027c-0.14 2.103-0.21 3.156-0.665 3.954-0.406 0.702-0.997 1.257-1.708 1.607l-0.023 0.010c-0.825 0.402-1.881 0.402-3.989 0.402h-4.025c-2.108 0-3.164 0-3.989-0.4-0.734-0.361-1.326-0.917-1.721-1.6l-0.010-0.019c-0.455-0.798-0.524-1.849-0.665-3.956l-0.935-14.025M13.333 14v6.667M18.667 14v6.667"></path>

        </symbol>
    </defs>
</svg>