<svg xmlns="http://www.w3.org/2000/svg" aria-hidden="true" style="position:absolute;width:0;height:0;overflow:hidden">
    <defs>
        <symbol id="icon-fi-ss-caret-down" viewBox="0 0 32 32">
            <path fill="#fff" d="M7.744 12h16.513l-7.423 8.391c-.221.25-.521.39-.834.39s-.613-.14-.834-.39L7.744 12z"
                style="fill:var(--color1, #fff)" />
        </symbol>
        <symbol id="icon-arrow-narrow-right" viewBox="0 0 32 32">
            <path fill="none" stroke="#eac645" stroke-linecap="round" stroke-linejoin="round" stroke-width="3.2"
                d="M5.333 16h21.333m.001 0-8-8m8 8-8 8" style="stroke:var(--color2, #eac645)" />
        </symbol>
        <symbol id="icon-arrow-back" viewBox="0 0 32 32">
            <path fill="#fff"
                d="M4.5 19.6 15.7 8.367c.133-.133.278-.228.433-.283s.322-.084.5-.084.345.028.5.084.3.149.433.283L28.799 19.6c.311.311.467.7.467 1.167s-.167.867-.5 1.2c-.333.333-.722.5-1.167.5s-.833-.167-1.167-.5l-9.8-9.8-9.8 9.8c-.311.311-.694.467-1.149.467s-.851-.167-1.184-.5-.5-.722-.5-1.167c0-.444.167-.833.5-1.167z"
                style="fill:var(--color1, #fff)" />
        </symbol>
        <symbol id="icon-arrow-right" viewBox="0 0 32 32">
            <path
                d="M17.867 16.946a1.334 1.334 0 0 0 0-1.894l-6.12-6.107a1.334 1.334 0 1 1 1.88-1.894l6.12 6.12a4.001 4.001 0 0 1 0 5.654l-6.12 6.12a1.337 1.337 0 0 1-2.172-.434 1.331 1.331 0 0 1 .292-1.46l6.12-6.107z" />
        </symbol>
        <symbol id="icon-arrow-left" viewBox="0 0 32 32">
            <path
                d="M14.133 16.946a1.334 1.334 0 0 1 0-1.894l6.12-6.107a1.334 1.334 0 1 0-1.88-1.894l-6.12 6.12a4.001 4.001 0 0 0 0 5.654l6.12 6.12a1.337 1.337 0 0 0 2.172-.434 1.331 1.331 0 0 0-.292-1.46l-6.12-6.107z" />
        </symbol>
        <symbol id="icon-arrow-double-left" viewBox="0 0 32 32">
            <path
                d="M10.133 16.946a1.334 1.334 0 0 1 0-1.894l6.12-6.107a1.334 1.334 0 1 0-1.88-1.894l-6.12 6.12a4.001 4.001 0 0 0 0 5.654l6.12 6.12a1.337 1.337 0 0 0 2.172-.434 1.331 1.331 0 0 0-.292-1.46l-6.12-6.107z" />
            <path
                d="M20.133 16.946a1.334 1.334 0 0 1 0-1.894l6.12-6.107a1.334 1.334 0 1 0-1.88-1.894l-6.12 6.12a4.001 4.001 0 0 0 0 5.654l6.12 6.12a1.337 1.337 0 0 0 2.172-.434 1.331 1.331 0 0 0-.292-1.46l-6.12-6.107z" />
        </symbol>
        <symbol id="icon-arrow-double-right" viewBox="0 0 32 32">
            <path
                d="M10.133 16.946a1.334 1.334 0 0 0 0-1.894l-6.12-6.107a1.334 1.334 0 1 1 1.88-1.894l6.12 6.12a4.001 4.001 0 0 1 0 5.654l-6.12 6.12a1.337 1.337 0 0 1-2.172-.434 1.331 1.331 0 0 1 .292-1.46l6.12-6.107z" />
            <path
                d="M20.133 16.946a1.334 1.334 0 0 0 0-1.894l-6.12-6.107a1.334 1.334 0 1 1 1.88-1.894l6.12 6.12a4.001 4.001 0 0 1 0 5.654l-6.12 6.12a1.337 1.337 0 0 1-2.172-.434 1.331 1.331 0 0 1 .292-1.46l6.12-6.107z" />
            <symbol id="icon-user-fill" viewBox="0 0 32 32">
                <path fill="#4f2ee8"
                    d="M5.333 29.333a10.662 10.662 0 0 1 18.208-7.543c2 2 3.124 4.714 3.124 7.543H5.332zm10.667-12c-4.42 0-8-3.58-8-8s3.58-8 8-8 8 3.58 8 8-3.58 8-8 8z"
                    style="fill:var(--color3, #4f2ee8)" />
            </symbol>
            <symbol id="icon-trash" viewBox="0 0 32 32">
                <path fill="none" stroke="#fff" stroke-linecap="round" stroke-linejoin="round" stroke-width="2.909"
                    d="M12 4h8M4 8h24m-2.667 0-.935 14.026c-.14 2.104-.21 3.157-.665 3.954a4 4 0 0 1-1.731 1.619c-.826.4-1.881.4-3.99.4h-4.025c-2.109 0-3.163 0-3.99-.4a4.005 4.005 0 0 1-1.731-1.619c-.455-.798-.525-1.85-.665-3.954L6.666 8m6.667 6v6.667M18.667 14v6.667"
                    style="stroke:var(--color1, #fff)" />
            </symbol>
            <symbol id="icon-align-left" viewBox="0 0 32 32">
                <path stroke-linecap="round" stroke-linejoin="round" stroke-width="2.286"
                    d="M22.667 13.333H4M28 8H4m24 10.667H4M22.667 24H4" />
            </symbol>
            <symbol id="icon-x-close" viewBox="0 0 32 32">
                <path stroke-linecap="round" stroke-linejoin="round" stroke-width="3.429" d="M24 8 8 24M8 8l16 16" />
            </symbol>
            <symbol id="icon-lock" viewBox="0 0 32 32">
                <path stroke-linecap="round" stroke-linejoin="round" stroke-width="2.286"
                    d="M22.667 14.667v-4a6.667 6.667 0 0 0-13.334 0v4M10.4 28h11.2c2.24 0 3.36 0 4.216-.436a3.991 3.991 0 0 0 1.748-1.748C28 24.96 28 23.84 28 21.6v-.533c0-2.24 0-3.36-.436-4.216a3.991 3.991 0 0 0-1.748-1.748c-.856-.436-1.976-.436-4.216-.436H10.4c-2.24 0-3.36 0-4.216.436a3.996 3.996 0 0 0-1.748 1.748C4 17.707 4 18.827 4 21.067v.533c0 2.24 0 3.36.436 4.216a3.991 3.991 0 0 0 1.748 1.748C7.04 28 8.16 28 10.4 28z" />
            </symbol>
            <symbol id="icon-mail" viewBox="0 0 32 32">
                <path stroke-linecap="round" stroke-linejoin="round" stroke-width="2.286"
                    d="m28.666 24-8.857-8m-7.619 0-8.857 8M2.667 9.333l10.887 7.621c.882.617 1.322.926 1.802 1.045.423.106.866.106 1.29 0 .479-.12.92-.428 1.802-1.045l10.887-7.621M9.067 26.667h13.867c2.24 0 3.36 0 4.216-.436a3.996 3.996 0 0 0 1.748-1.748c.436-.856.436-1.976.436-4.216v-8.533c0-2.24 0-3.36-.436-4.216A3.991 3.991 0 0 0 27.15 5.77c-.856-.436-1.976-.436-4.216-.436H9.067c-2.24 0-3.36 0-4.216.436a3.991 3.991 0 0 0-1.748 1.748c-.436.856-.436 1.976-.436 4.216v8.533c0 2.24 0 3.36.436 4.216a3.996 3.996 0 0 0 1.748 1.748c.856.436 1.976.436 4.216.436z" />
            </symbol>
            <symbol id="icon-arr-bot" viewBox="0 0 32 32">
                <path
                    d="M10.349 12.284a.916.916 0 0 0 1.301 0l4.199-4.208a.916.916 0 1 1 1.301 1.292l-4.207 4.208a2.75 2.75 0 0 1-3.887 0L4.85 9.368a.917.917 0 0 1 1.3-1.292l4.199 4.207Z" />
            </symbol>
            <symbol id="herb" viewBox="0 0 20 32">
                <path fill="#d0d0d0" style="fill: var(--color1, #d0d0d0)" d="M0 0h20v32h-20v-32z"></path>
                <path fill="#f6f6f6" style="fill: var(--color2, #f6f6f6)" d="M-233-396h375v3650h-375v-3650z"></path>
                <path style="fill: var(--color3, #000)"
                    d="M-197-24h303c8.837 0 16 7.163 16 16v428c0 8.837-7.163 16-16 16h-303c-8.837 0-16-7.163-16-16v-428c0-8.837 7.163-16 16-16z">
                </path>
                <path fill="#fff" style="fill: var(--color4, #fff)"
                    d="M9.005 30.888c-1.738-1.262-2.991-3.156-3.414-5.351h-5.591v-23.117c2.991 1.443 5.153 4.599 5.388 7.876l0.846 6.493-0.407-0.045c-0.893 0-1.676 0.812-1.676 1.608 0 0.752 0.595 1.383 1.378 1.548l1.018 0.226c1.676-3.051 2.631-6.042 2.631-8.973 0-2.645-0.36-5.291-0.423-7.996 0-1.202 0.486-2.3 1.253-3.156 0.783 0.857 1.253 1.954 1.253 3.156 0 2.705-0.423 5.351-0.423 7.996 0 2.931 0.955 5.922 2.631 8.973l1.018-0.226c0.783-0.165 1.378-0.812 1.378-1.548 0-0.812-0.783-1.608-1.676-1.608l-0.423 0.060 0.846-6.493c0.423-3.277 2.396-6.448 5.388-7.876v23.117h-5.576c-0.423 2.179-1.613 4.148-3.414 5.351-0.423 0.286-0.783 0.631-1.018 1.097-0.219-0.466-0.579-0.812-0.987-1.112zM2.647 17.556c0.235-0.857 0.893-1.608 1.738-2.074l-0.658-5.351c-0.235-1.668-0.955-3.156-2.036-4.374v11.784h0.955v0.015zM5.466 23.929c0-0.812 0.125-1.548 0.298-2.3l-0.783-0.18c-1.143-0.346-2.036-1.203-2.334-2.3h-0.955v4.78h3.774zM9.178 23.929c0-0.977-0.783-1.834-1.801-1.954-0.172 0.631-0.298 1.263-0.298 1.954h2.099zM9.178 25.552h-1.864c0.298 1.263 0.955 2.42 1.864 3.397v-3.397zM11.809 20.547c-0.72-1.262-1.378-2.585-1.801-3.968-0.423 1.383-1.081 2.706-1.801 3.968 0.72 0.165 1.316 0.631 1.801 1.157 0.486-0.526 1.081-0.992 1.801-1.157zM12.952 23.929c0-0.691-0.125-1.323-0.297-1.954-1.018 0.12-1.801 0.977-1.801 1.954h2.099zM12.717 25.552h-1.864v3.397c0.908-0.992 1.566-2.134 1.864-3.397zM18.34 23.929v-4.78h-0.955c-0.298 1.097-1.206 1.954-2.334 2.3l-0.783 0.18c0.172 0.752 0.298 1.488 0.298 2.3h3.774zM18.34 17.556v-11.799c-1.081 1.202-1.864 2.706-2.036 4.374l-0.658 5.351c0.846 0.466 1.504 1.203 1.739 2.074h0.955z">
                </path>
            </symbol>


            <symbol id="trash" viewBox="0 0 32 32">
                <path fill="none" stroke="#fff" style="stroke: var(--color1, #fff)" stroke-linejoin="round"
                    stroke-linecap="round" stroke-miterlimit="4" stroke-width="2.6667"
                    d="M12 4h8M4 8h24M25.333 8l-0.935 14.027c-0.14 2.103-0.21 3.156-0.665 3.954-0.406 0.702-0.997 1.257-1.708 1.607l-0.023 0.010c-0.825 0.402-1.881 0.402-3.989 0.402h-4.025c-2.108 0-3.164 0-3.989-0.4-0.734-0.361-1.326-0.917-1.721-1.6l-0.010-0.019c-0.455-0.798-0.524-1.849-0.665-3.956l-0.935-14.025M13.333 14v6.667M18.667 14v6.667">
                </path>

            </symbol>
            <symbol id="icon-trizub" viewBox="0 0 20 32">
                <path fill="#fff" style="fill: var(--color1, #fff)"
                    d="M9.005 30.888c-1.738-1.262-2.991-3.156-3.414-5.351h-5.591v-23.117c2.991 1.443 5.153 4.599 5.388 7.876l0.846 6.493-0.407-0.045c-0.893 0-1.676 0.812-1.676 1.608 0 0.752 0.595 1.383 1.378 1.548l1.018 0.226c1.676-3.051 2.631-6.042 2.631-8.973 0-2.645-0.36-5.291-0.423-7.996 0-1.202 0.486-2.3 1.253-3.156 0.783 0.857 1.253 1.954 1.253 3.156 0 2.705-0.423 5.351-0.423 7.996 0 2.931 0.955 5.922 2.631 8.973l1.018-0.226c0.783-0.165 1.378-0.812 1.378-1.548 0-0.812-0.783-1.608-1.676-1.608l-0.423 0.060 0.846-6.493c0.423-3.277 2.396-6.448 5.388-7.876v23.117h-5.576c-0.423 2.179-1.613 4.148-3.414 5.351-0.423 0.286-0.783 0.631-1.018 1.097-0.219-0.466-0.579-0.812-0.987-1.112zM2.647 17.556c0.235-0.857 0.893-1.608 1.738-2.074l-0.658-5.351c-0.235-1.668-0.955-3.156-2.036-4.374v11.784h0.955v0.015zM5.466 23.929c0-0.812 0.125-1.548 0.298-2.3l-0.783-0.18c-1.143-0.346-2.036-1.203-2.334-2.3h-0.955v4.78h3.774zM9.178 23.929c0-0.977-0.783-1.834-1.801-1.954-0.172 0.631-0.298 1.263-0.298 1.954h2.099zM9.178 25.552h-1.864c0.298 1.263 0.955 2.42 1.864 3.397v-3.397zM11.809 20.547c-0.72-1.262-1.378-2.585-1.801-3.968-0.423 1.383-1.081 2.706-1.801 3.968 0.72 0.165 1.316 0.631 1.801 1.157 0.486-0.526 1.081-0.992 1.801-1.157zM12.952 23.929c0-0.691-0.125-1.323-0.297-1.954-1.018 0.12-1.801 0.977-1.801 1.954h2.099zM12.717 25.552h-1.864v3.397c0.908-0.992 1.566-2.134 1.864-3.397zM18.34 23.929v-4.78h-0.955c-0.298 1.097-1.206 1.954-2.334 2.3l-0.783 0.18c0.172 0.752 0.298 1.488 0.298 2.3h3.774zM18.34 17.556v-11.799c-1.081 1.202-1.864 2.706-2.036 4.374l-0.658 5.351c0.846 0.466 1.504 1.203 1.739 2.074h0.955z">
                </path>
            </symbol>
            <symbol id="icon-slider" viewBox="0 0 32 32">
                <path fill="#fff" style="fill: var(--color1, #fff)"
                    d="M16 32c-8.837 0-16-7.163-16-16s7.163-16 16-16c8.837 0 16 7.163 16 16s-7.163 16-16 16z"></path>
                <path fill="#4f2ee8" style="fill: var(--color2, #4f2ee8)"
                    d="M15.452 17.081c0.072 0.072 0.157 0.13 0.251 0.169s0.195 0.059 0.297 0.059c0.102 0 0.203-0.020 0.297-0.059s0.179-0.097 0.251-0.169l3.535-3.543c0.072-0.072 0.157-0.13 0.251-0.169s0.195-0.059 0.297-0.059c0.102 0 0.203 0.020 0.297 0.059s0.179 0.097 0.251 0.169c0.144 0.145 0.224 0.34 0.224 0.544s-0.081 0.4-0.224 0.544l-3.543 3.543c-0.434 0.434-1.023 0.677-1.636 0.677s-1.202-0.244-1.636-0.677l-3.543-3.543c-0.143-0.144-0.223-0.338-0.224-0.54-0.001-0.102 0.019-0.202 0.057-0.296s0.095-0.18 0.167-0.252c0.072-0.072 0.157-0.13 0.251-0.169s0.195-0.059 0.297-0.059 0.203 0.020 0.297 0.059c0.094 0.039 0.179 0.097 0.251 0.169l3.536 3.543z">
                </path>
            </symbol>
    </defs>
</svg>